# xmcd
#
# Track frame offsets:
#	150
#	18746
#	31495
#	47106
#	64007
#	78893
#	90509
#	109558
#	129068
#	143703
#	168544
#	188151
#
# Disc length: 2778 seconds
#
# Revision: 0
# Processed by: cddbd v1.5.2PL0 Copyright (c) Steve Scherf et al.
# Submitted via: audiograbber 1.83.01
#
DISCID=930ad80c
DTITLE=Various Artist - The 11th Annual Brisbane Blues Festival
DYEAR=1900
DGENRE=
TTITLE0=The Big Easy Ft Michelle Brown - Fever
TTITLE1=The Big Easy Ft Michelle Brown - Paying The Cost To Be The Boss
TTITLE2=The Big Easy Ft Michelle Brown - Mother Funk
TTITLE3=The Chrome Daddies - I'd Like To Get To Know Your Name
TTITLE4=The Chrome Daddies - Drive For A Livin' 
TTITLE5=The Chrome Daddies - Little Joe From Chicago
TTITLE6=The Hipshooters - Voodoo Love
TTITLE7=The Hipshooters - Revolution
TTITLE8=The Hipshooters - Time To Decide
TTITLE9=Hat Fitz and Itchy - Frisco Line
TTITLE10=Hat Fitz and Itchy - Gallows Pole
TTITLE11=Hat Fitz and Itchy - Sugar Mama
EXTD=
EXTT0=
EXTT1=
EXTT2=
EXTT3=
EXTT4=
EXTT5=
EXTT6=
EXTT7=
EXTT8=
EXTT9=
EXTT10=
EXTT11=
PLAYORDER=
